<?xml version="1.0" standalone="no"?>
<!DOCTYPE svg PUBLIC "-//W3C//DTD SVG 20010904//EN"
 "http://www.w3.org/TR/2001/REC-SVG-20010904/DTD/svg10.dtd">
<svg version="1.0" xmlns="http://www.w3.org/2000/svg"
 width="15.000000pt" height="15.000000pt" viewBox="0 0 20.000000 21.000000"
 preserveAspectRatio="xMidYMid meet">
<metadata>
Created by potrace 1.16, written by Peter Selinger 2001-2019
</metadata>
<g transform="translate(0.000000,21.000000) scale(0.005917,-0.006213)"
fill="#2187D0" stroke="none">
<path d="M1485 3374 c-284 -42 -560 -149 -775 -302 -122 -86 -316 -280 -402
-402 -127 -179 -228 -412 -280 -645 -20 -88 -22 -129 -22 -335 0 -206 2 -247
22 -335 52 -233 153 -466 280 -645 86 -122 280 -316 402 -402 177 -126 413
-228 645 -280 88 -20 129 -22 335 -22 206 0 247 2 335 22 232 52 468 154 645
280 122 86 316 280 402 402 127 179 228 412 280 645 20 88 22 129 22 335 0
206 -2 247 -22 335 -35 156 -78 279 -148 420 -86 173 -174 295 -319 440 -66
66 -163 150 -215 187 -114 81 -320 185 -450 227 -186 60 -266 73 -495 76 -115
2 -223 1 -240 -1z m125 -102 c47 -38 14 -112 -49 -112 -62 0 -223 -34 -332
-70 -230 -76 -404 -184 -580 -359 -245 -245 -378 -519 -424 -871 -15 -111 -26
-130 -72 -130 -13 0 -33 10 -44 21 -19 19 -21 28 -15 93 38 398 242 791 546
1054 211 182 467 309 729 361 167 34 212 36 241 13z m401 -13 c679 -136 1209
-725 1275 -1415 6 -65 4 -74 -15 -93 -11 -11 -31 -21 -44 -21 -46 0 -57 19
-72 130 -46 352 -179 626 -424 871 -176 175 -350 283 -580 359 -116 38 -271
70 -343 70 -70 0 -107 78 -55 115 26 20 108 15 258 -16z m-200 -189 c113 -12
229 -36 330 -71 182 -61 444 -225 464 -289 8 -26 -18 -70 -43 -71 -34 -3 -44
3 -122 60 -146 109 -334 191 -518 228 -118 23 -346 23 -464 0 -187 -37 -377
-122 -526 -234 -99 -75 -132 -80 -160 -27 -18 33 -4 60 56 107 218 169 463
269 727 296 116 12 142 12 256 1z m104 -235 c414 -86 750 -383 883 -780 77
-228 77 -502 0 -730 -97 -291 -323 -550 -592 -680 -181 -87 -320 -120 -516
-120 -330 0 -614 123 -845 366 -213 223 -320 490 -320 799 0 312 108 578 324
803 192 199 396 306 676 353 100 17 282 12 390 -11z m835 -257 c47 -48 144
-196 186 -285 232 -489 172 -1033 -163 -1465 -47 -60 -74 -74 -107 -56 -53 28
-48 61 27 160 112 149 197 339 234 526 23 118 23 346 0 464 -37 187 -119 370
-233 526 -35 47 -64 92 -64 100 0 20 46 62 68 62 11 0 34 -15 52 -32z m-2035
-3 c14 -13 25 -30 25 -38 0 -8 -27 -51 -60 -96 -111 -155 -191 -336 -227 -519
-23 -118 -23 -346 0 -464 37 -184 119 -372 228 -518 32 -43 59 -84 60 -92 4
-32 -3 -49 -26 -64 -46 -30 -79 -4 -175 138 -132 195 -206 407 -230 656 -20
196 16 431 96 630 76 187 217 392 270 392 8 0 26 -11 39 -25z m-520 -960 c15
-14 25 -36 25 -53 0 -115 75 -384 148 -529 141 -279 386 -524 665 -665 144
-72 414 -148 528 -148 64 0 96 -74 48 -113 -19 -15 -33 -17 -84 -12 -751 81
-1348 680 -1430 1432 -6 58 -5 64 19 88 31 31 50 32 81 0z m3071 0 c24 -24 25
-30 19 -88 -68 -626 -495 -1157 -1091 -1357 -114 -38 -318 -80 -388 -80 -45 0
-76 25 -76 61 0 41 31 69 78 69 124 0 388 73 539 148 279 141 524 386 665 665
73 145 148 414 148 529 0 32 39 78 65 78 9 0 27 -11 41 -25z m-2334 -929 c231
-170 474 -250 758 -250 281 0 520 78 751 244 45 33 88 60 96 60 18 0 63 -45
63 -64 0 -53 -205 -194 -392 -270 -427 -171 -905 -122 -1286 134 -102 69 -152
115 -152 142 0 22 42 68 62 68 8 0 53 -29 100 -64z"/>
<path d="M1555 2529 c-225 -33 -434 -158 -561 -335 -101 -141 -152 -297 -161
-491 l-6 -123 229 0 230 0 116 95 c64 52 119 95 122 95 3 0 6 -11 6 -24 0 -18
-29 -49 -117 -127 -65 -56 -130 -110 -145 -118 -28 -16 -28 -17 -28 -118 l0
-103 145 0 145 0 0 -40 0 -40 45 0 45 0 0 40 c0 39 1 40 35 40 34 0 35 -1 35
-40 l0 -40 45 0 45 0 0 40 0 40 145 0 145 0 0 105 0 105 -145 0 -145 0 0 45 0
45 255 0 c293 0 273 9 232 -103 -36 -98 -73 -155 -152 -232 -157 -152 -367
-215 -576 -171 -83 18 -170 61 -278 139 l-85 61 -68 -74 -68 -74 27 -28 c15
-16 59 -50 97 -77 409 -281 902 -224 1174 138 120 160 169 299 179 514 l6 127
-244 0 c-235 0 -246 -1 -294 -24 -30 -14 -81 -55 -127 -101 -71 -71 -78 -76
-78 -52 0 21 27 50 140 149 l140 123 0 65 c0 36 3 82 6 103 l7 37 -147 0 -146
0 0 35 c0 35 0 35 -45 35 -45 0 -45 0 -45 -35 0 -33 -2 -35 -35 -35 -33 0 -35
2 -35 35 0 35 0 35 -45 35 -45 0 -45 0 -45 -35 l0 -35 -145 0 -145 0 0 -110 0
-110 145 0 145 0 0 -40 0 -40 -236 0 -237 0 7 43 c3 23 25 79 47 125 100 204
336 352 564 352 146 0 316 -66 415 -161 33 -31 56 -46 64 -42 35 21 155 119
156 126 0 20 -122 126 -197 170 -173 103 -368 143 -558 116z"/>
</g>
</svg>
